<?xml version="1.0" encoding="utf-8"?>
<!-- Generator: Adobe Illustrator 25.1.0, SVG Export Plug-In . SVG Version: 6.00 Build 0)  -->
<svg version="1.1" id="Layer_1" xmlns="http://www.w3.org/2000/svg" xmlns:xlink="http://www.w3.org/1999/xlink" x="0px" y="0px"
	 viewBox="0 0 640.9 509.3" style="enable-background:new 0 0 640.9 509.3;" xml:space="preserve">
<style type="text/css">
	.st0{fill:#FFFFFF;}
	.st1{fill:#2B3083;}
	.st2{fill:#F1BD3A;}
</style>
<g id="XMLID_1_">
	<g>
		<path class="st0" d="M333.6,228.4c0.6,4,0.3,7.9-2.2,11.4c-1.7,2.4-4,4.7-4.8,7.4c-5.3,18.3-19.3,19.4-34.2,19.1
			c-2.6,0-5.1-0.3-7.4-1.7c-19.4-11.6-38.9-23.2-60.7-36.3c26.3-7,50.3-10.8,74.7-11.7c5.2-0.2,6.1,2.4,4.7,6.9
			c-0.9,2.8-2.8,5.5-1.8,8.6c0.6,1.8,1.7,3.8,3.1,4.7c2.2,1.4,3.4-0.8,4.5-2.4c3.5-5.6,9.2-8.1,14.3-11.4
			C330.5,218.8,332.6,222.6,333.6,228.4z"/>
		<path class="st0" d="M489.1,297.2c1.1,12.8,13.6,2.8,19.9,7.8c-4.6,4.9-17.5-4.1-16.8,10.3c0.4,8.6,7.8,4.7,11.9,8
			c-5.2,10-13.6,16.5-21.9,23.1c-18.3,14.6-35.1,19.6-57,3.5c-25.8-19.1-54.7-33.7-82.2-50.2c-2.2-1.3-4.7-2.5-6.3-4.5
			c-1.9-2.3-2.6-6-0.6-8.3c2.3-2.6,4.7,0.1,6.7,1.7c2.7,2,4.2,7.9,8.8,2.5c10.6,0.3,16.8-4.3,18.9-15.8c1.1-6.4,6.6-3,10.4-1.9
			c5.2,1.6,9.6,3.8,7.5-5.9c-2.1-9.5,8.3-7.5,10-6.2c9.5,7,13.7-4.6,21.2-3.2c-1.4-6-7.5-3.9-8-8.6c30.8-13.7,65.9-5.7,84.2,19.4
			C482.2,275.2,488.4,287.9,489.1,297.2z"/>
		<path class="st0" d="M437.9,363.1c0.8,0.5,1.4,1.3,3.2,2.9c-7.8,5-15.8,6.4-23.4,8.5c-18.4,5-37.2,7.9-56.1,9.9
			c-6.1,0.7-11.9,0.8-11.6-8.4c0.2-5.1-3.8-5.5-7.5-5.5c-10.6,0-21.2,0.1-31.9-0.1c-5.1-0.1-8,1.8-7.9,7.5c0.1,5.1-2.6,7.3-7.3,6.9
			c-48.7-3.3-95.9-12.1-136.9-42c-6.6-4.8-12.1-10.9-16.8-17.8c-3.4-4.9-3.4-7.8,3.6-7.5c5.1,0.2,9.7,0.1,9.7-7.5
			c0-8.4-5.5-7.4-10.6-7.7c-2.7-0.1-5.7,1.1-8.1-1.2c7-6.6,22.2,6.7,23.9-9.2c1-8.9,6.6-21.4-7.4-27.6
			c17.6-16.4,38.6-25.4,60.4-32.5c3.6-1.2,6.9,0.5,10.1,2.3C294.8,277.1,366.4,320.1,437.9,363.1z"/>
		<path class="st1" d="M535.9,289.8c1.2,9.8-1.7,15.5-12.5,13.8c-1.4-0.2-2.9,0.3-4.6,0.6c1.2,3.2,3.5,2.2,5.2,2.2
			c5.4,0.2,6.1,3.7,6,8.2c0,4.5-2,7.4-6.3,6.7c-9.6-1.5-14.1,4.5-19.3,11.6c-10.3,14.1-25,22.8-40.1,30.5c-1.9,1-5,2.1-5.3,3.7
			c-0.7,3.3,3,3.8,5,5c15,9.2,30.1,18,45,27.3c3,1.9,7.4,2.7,7.9,8.1c-4.9,1.5-8.1-2-11.4-4c-16.5-9.7-33-19.5-49.3-29.7
			c-4.6-2.8-8.5-3.2-13.6-1.3c-25.6,9.3-52.1,14.7-79.2,17.1c-6.1,0.5-13.3,0-13.8,10c-0.2,4.4-4.7,3.7-7.8,3.8
			c-9.3,0.1-18.7,0-28,0.1c-5.7,0-10.9,0.3-11.5-8.1c-0.3-4.9-5.2-3.9-8.6-4.2c-33.5-3.1-66.5-8.3-97.9-21.3
			c-24.8-10.3-48.3-22.5-62.3-47.9c-1.4-2.4-3.3-4-6.2-4.2c-4.7-0.4-10.2,0.7-10.1-7.1c0-5.7,0.6-6.5,9.1-9.8
			c-3.6-3.2-11,1.6-12.3-5c-1.6-8.8-2-18,0.4-26.7c1-3.6,5.6-3,8.6-2.6c13.1,1.8,23.2-2.9,32.9-12.1c11-10.4,25.1-16.1,38.8-22
			c4.3-1.9,8.8-3.6,14.9-6.1c-26.1-15.8-50.4-30.6-74.8-45.3c0.5-0.9,1-1.9,1.5-2.8c5.1-0.9,8.7,2.9,12.7,5.2
			c20.7,12.2,41.3,24.6,61.8,37.2c4.5,2.8,8.7,3.4,13.7,2c24.9-7.1,50.4-11,76.3-11.6c8.4-0.2,10.5-9.5,18.5-9.5
			c-14-19.5-33.1-32.8-47.4-50.4c-8.2-10.1-18.3-16-28-23.2c-16.1-12-22.8-30.2-17.9-49.8c0.6-2.4,0.7-6.2,3.8-6.2
			c3.4,0,3.2,4,3.4,6.2c0.8,13,3.8,25,13,34.6c1.9,2,3.1,4.8,6.8,4.9c6,0.1,10.3,4.1,13.4,8.7c5,7.4,11.6,12.3,18.9,16.6
			c3.1,1.8,5.5,2.6,9.6,2c7.8-1.1,14.1,5.3,20.9,8.6c3.3,1.6,6.3,5.3,10.4,6.4c10.3,2.8,17.7,10,24.9,17.3c4.7,4.8,9.9,6.4,15.7,3.5
			c9.7-4.7,17.9-11.5,24.6-20.1c1.6-2,1.7-4.2,1.2-6.6c-1.4-6.3,1.2-11.7,3.8-17.1c2.8-5.9,5.3-7.7,10-1.4c3.6,4.8,7.8,5.9,11.4-1.1
			c4.4-8.5,9.5-16.6,14.4-24.8c1.1-1.9,2.2-4.9,4.8-4.1c3.3,1,2.1,4.5,1.9,6.9c-0.7,6.8-4.4,12.4-8.7,20.4
			c9-6.7,14.4-13.8,20.1-20.5c2.1-2.5,4-7.9,7.9-5.4c4,2.6,1.1,7.2-0.4,10.8c-0.6,1.5-1.5,2.9-3,5.7c6.2-1.5,8.7-6.1,12.4-8.7
			c1.6-1.1,3.4-2.6,5.2-1.2c1.8,1.4,1.3,3.7,0.8,5.6c-1.9,7.1-8.1,10.8-11.8,17.5c5.3-2.5,10.5-5.1,15.9-7.5
			c1.9-0.9,4.3-2.8,6.1-0.3c2.1,2.8-0.1,5.1-1.9,6.9c-4.8,5-11.2,7.5-19.2,11.6c13.5,1.3,24.5-4.1,36.6-1.3
			c-5.1,9-15.3,5.3-22.4,11.6c5.9,1.2,10.6,1.7,15.1,3.1c3.4,1.1,10.1-1.2,9.1,5.2c-1.1,7.3-2.3,16.5-13.4,15.3
			c-3.1-0.3-6.2-2.3-9.4-0.6c-1.5,6.8,14,6.1,6.2,16.1c-4,5.1-6.2,11.7-10,17.4c0.4-4.1-1-8.3,1.8-11.8c5.1-6.4,8.4-12-1.5-17.6
			c-4.5-2.5-2.5-6.4,2-7.7c2.4-0.7,5.1-0.3,7.6-0.5c2.6-0.1,6.1,3.3,7.5-0.9c1.2-3.6-4.1-3.3-4.6-5c-2.4-8.2-9.3-7.3-15.1-9.6
			c-7.9-3.3,0.6-6,1.4-9.6c-7,1.3-14.4-1.3-20.2,4.7c1.9,4.1,6,1.9,8.9,3.9c-1.7,2.1-4,1.3-5.9,1.3c-5.8,0.1-9.8,1.3-6,8.6
			c0.9,1.7,3.1,4.1-0.6,5.6c-2.9,1.2-5.7,1.7-8.3-0.4c-3.2-2.6,0.6-3.6,1.3-5.4c2.8-7.9-4.9-9.9-8-14.3c-2-2.9-5.8-6-9.1-0.1
			c-1.3,2.4-3.8,1.4-6.1,0.7c-14-4.6-15.1-4.5-23.7,8.4c-3.1,4.6-6.6,8.4-10.9,11c-5.3,3.2-8.3,6.7-9.4,13.5
			c-1,6.7-8.4,6.6-13.4,7.7c-4.7,1.1-3-4.8-4.8-6.8c-4.9-5.7-10.1-11.2-16-15.7c-5.3-4.1-11.5-7.2-17.7-9.8
			c-2.9-1.2-7.3-1.8-9.4,2.5c-2.3,4.7,2.2,6.2,4.4,8.6c2.9,3.1,11.7,2.9,3.5,12.2c12.8-3.7,21.2-1.8,26.4,9.9
			c4.3,9.8,3.5,19.7-4.3,27c-0.2,0.2-0.6,0.4-0.7,0.7c-1.3,16.7-17.8,23.9-22.5,38.6c-1,3.1-3,5.7,2.2,6.3c0.9,0.1,1.9,0.4,2.6,0.9
			c3.1,2.1-8.7,2.6-0.6,5.1c3,1,5.5-1.5,8.2-2.3c2-0.5,3.9-1.3,4.5,1.6c1.7,7.9,9,10.4,13.6,15.5c0,0,0,0.1,0,0.1c0,0,0,0,0,0
			c-4.6,5.4-6.1-0.5-8.8-2.5c-2-1.5-4.4-4.2-6.7-1.7c-2.1,2.3-1.3,5.9,0.6,8.3c1.6,2,4.1,3.2,6.3,4.5c27.5,16.6,56.5,31.1,82.2,50.2
			c21.8,16.2,38.7,11.1,57-3.5c8.3-6.6,16.8-13.1,21.9-23.1c-4.2-3.3-11.5,0.6-11.9-8c-0.7-14.4,12.2-5.4,16.8-10.3
			c-6.3-5-18.9,5-19.9-7.8c-0.8-9.2-7-22,6.8-28.3c-18.4-25.1-53.4-33.1-84.2-19.4c0.5,4.6,6.6,2.6,8,8.6
			c-7.5-1.4-11.8,10.2-21.2,3.2c-1.7-1.2-12.1-3.3-10,6.2c2.1,9.7-2.3,7.4-7.5,5.9c-3.7-1.1-9.2-4.5-10.4,1.9
			c-2.1,11.5-8.3,16-18.9,15.8c0,0,0,0,0-0.1c0,0,0,0-0.1-0.1c0.9-4.3-0.4-10.5,8-6.5c2.4,1.2,4.2-5.3,5.1-7.9
			c3.2-9.9,8.5-12.4,18.1-6.3c-0.3-9.8-2.3-18.9,7.9-24c2-1,5-8.4,1.1-12.5c-5-5.4-0.5-8.4,2-11.9c3.2-4.5,7-1.3,9.1,1
			c7.4,8,18.1,8.9,26.7,14.6c7.1,4.7,29.9-6.6,35.1-16.5c1.4-2.7,2.2-5.4,5.2-3.6c4,2.4-0.3,4.2-1.2,6.2c-2.2,4.9-11.1,6.4-8.8,12.2
			c1.5,3.8,8.5,5.2,13.1,7.7c8.6,4.6,17.4,9.6,23.6,17.2c7.1,8.8,15.3,10.6,25.5,10.1c13.8-0.6,13.8-0.1,13.8,14.2
			C535.9,286.5,535.7,288.2,535.9,289.8z M441.1,366c-1.8-1.7-2.4-2.5-3.2-2.9c-71.6-43-143.1-85.9-214.7-128.9
			c-3.2-1.9-6.4-3.5-10.1-2.3c-21.9,7.1-42.8,16.1-60.4,32.5c14,6.3,8.4,18.8,7.4,27.6c-1.8,15.9-16.9,2.6-23.9,9.2
			c2.5,2.3,5.4,1.1,8.1,1.2c5.1,0.3,10.6-0.7,10.6,7.7c0,7.6-4.6,7.7-9.7,7.5c-7-0.3-7,2.6-3.6,7.5c4.7,6.9,10.2,12.9,16.8,17.8
			c41.1,30,88.2,38.8,136.9,42c4.7,0.3,7.4-1.8,7.3-6.9c-0.1-5.7,2.8-7.5,7.9-7.5c10.6,0.1,21.3,0,31.9,0.1c3.7,0,7.7,0.4,7.5,5.5
			c-0.3,9.3,5.5,9.1,11.6,8.4c18.9-2,37.7-5,56.1-9.9C425.4,372.4,433.4,371.1,441.1,366z M331.4,239.8c2.5-3.5,2.8-7.4,2.2-11.4
			c-0.9-5.9-3.1-9.6-9.6-5.3c-5.1,3.4-10.9,5.8-14.3,11.4c-1,1.6-2.3,3.8-4.5,2.4c-1.4-1-2.5-2.9-3.1-4.7c-1-3.1,0.9-5.8,1.8-8.6
			c1.4-4.5,0.5-7.1-4.7-6.9c-24.4,1-48.4,4.7-74.7,11.7c21.8,13,41.3,24.6,60.7,36.3c2.3,1.4,4.8,1.6,7.4,1.7
			c14.9,0.3,28.9-0.9,34.2-19.1C327.4,244.5,329.6,242.2,331.4,239.8z"/>
		<path d="M351.7,290.9C351.7,290.9,351.7,291,351.7,290.9c0,0.1,0,0.1,0,0.1c0,0,0,0,0,0C351.7,291,351.7,291,351.7,290.9z"/>
		<path class="st1" d="M344.4,413.8c0,4.8-1.5,7.7-6.6,7.6c-4.2,0-8.4,0-12.6,0c-3.9,0-7.7-0.1-11.6,0c-4.9,0.1-6.9-2.3-6.9-7.3
			c0-4.8,1.5-7.7,6.6-7.6c8.1,0,16.1,0.1,24.1,0C342.3,406.4,344.4,408.8,344.4,413.8z"/>
	</g>
	<g>
	</g>
</g>
<g id="XMLID_2_">
	<g>
		<rect x="482.5" y="267.5" class="st2" width="54" height="38"/>
		<rect x="298.4" y="366.4" class="st2" width="54" height="38"/>
		<rect x="109.9" y="263.4" class="st2" width="54" height="38"/>
	</g>
	<g>
	</g>
</g>
</svg>
